<?xml version="1.0" encoding="UTF-8"?>
<svg id="Layer_2" data-name="Layer 2" xmlns="http://www.w3.org/2000/svg" viewBox="0 0 397.12 258.72">
  <defs>
    <style>
      .cls-1 {
        letter-spacing: -.04em;
      }

      .cls-2 {
        letter-spacing: 0em;
      }

      .cls-3, .cls-4 {
        fill: #231f20;
      }

      .cls-5 {
        letter-spacing: -.08em;
      }

      .cls-4 {
        font-family: CinzelDecorative-Regular, 'Cinzel Decorative';
        font-size: 46px;
      }
    </style>
  </defs>
  <g id="Layer_1-2" data-name="Layer 1">
    <polyline class="cls-3" points="162.24 226.05 132.74 214.13 142.02 197.35 110.89 197.35 101.06 186.75 114.17 167.77 90.68 162.47 85.76 145.69 117.44 136.42 89.04 124.5 87.95 111.7 114.17 101.54 99.42 87.86 108.7 76.38 136.56 76.38 132.74 56.51 173.16 37.53 151.86 39.73 121.81 51.66 42.61 0 96.69 62.69 81.39 82.12 56.81 89.62 66.64 99.78 66.1 121.41 0 135.54 62.82 145.69 67.19 168.21 50.25 184.99 77.02 185.87 102.15 205.3 39.88 258.72 114.71 221.63"/>
    <polyline class="cls-3" points="242.95 226.05 270.98 214.13 262.16 197.35 291.75 197.35 301.09 186.75 288.63 167.77 310.95 162.47 315.62 145.69 285.52 136.42 312.51 124.5 313.55 111.7 288.63 101.54 302.65 87.86 293.82 76.38 267.35 76.38 270.98 56.51 232.57 37.53 252.81 39.73 281.36 51.66 356.63 0 305.24 62.69 319.78 82.12 343.14 89.62 333.79 99.78 334.31 121.41 397.12 135.54 337.43 145.69 333.27 168.21 349.37 184.99 323.93 185.87 300.05 205.3 359.23 258.72 288.11 221.63"/>
    <text class="cls-4" transform="translate(125.13 151.49) scale(1.24 1)"><tspan x="0" y="0">R</tspan><tspan class="cls-5" x="29.99" y="0">E</tspan><tspan class="cls-1" x="54.23" y="0">V</tspan><tspan class="cls-2" x="85.47" y="0">O</tspan></text>
  </g>
</svg>